<?xml version="1.0" standalone="no"?><!DOCTYPE svg PUBLIC "-//W3C//DTD SVG 1.1//EN" "http://www.w3.org/Graphics/SVG/1.1/DTD/svg11.dtd"><svg class="icon" width="128px" height="128.00px" viewBox="0 0 1024 1024" version="1.1" xmlns="http://www.w3.org/2000/svg"><path d="M512 512m-512 0a512 512 0 1 0 1024 0 512 512 0 1 0-1024 0Z" fill="#983262" /><path d="M1023.872 522.056L776.818 275l-76.036 35.894-109.856-109.856L166.682 531.002l94.436 94.436-31.458 175.094 219.642 219.642A516.914 516.914 0 0 0 512 1024c279.408 0 506.512-223.82 511.872-501.944z" fill="#662E57" /><path d="M776.818 583.072h-50V325H484.7v-50h292.118zM521.778 800.532H229.66V492.46h50v258.072h242.118z" fill="#FF6838" /><path d="M521.3 582.32a150.5 46.568 0 1 0 301 0 150.5 46.568 0 1 0-301 0Z" fill="#FFFFFF" /><path d="M671.81 535.744l-0.476 0.004v93.128l0.476 0.004c83.116 0 150.494-20.85 150.494-46.568s-67.378-46.568-150.494-46.568z" fill="#E0E0E0" /><path d="M521.316 630.888c0 25.718 67.378 46.568 150.494 46.568s150.494-20.85 150.494-46.568v-48.578c0 25.718-67.378 46.568-150.494 46.568s-150.494-20.85-150.494-46.568v48.578z" fill="#E0E0E0" /><path d="M671.81 628.88l-0.476-0.004v48.578l0.476 0.004c83.116 0 150.494-20.85 150.494-46.568v-48.578c0 25.718-67.378 46.568-150.494 46.568z" fill="#C0C0C0" /><path d="M521.316 696.454c0 25.718 67.378 46.568 150.494 46.568s150.494-20.85 150.494-46.568v-48.578c0 25.718-67.378 46.568-150.494 46.568s-150.494-20.85-150.494-46.568v48.578z" fill="#E0E0E0" /><path d="M671.81 694.444l-0.476-0.004v48.578l0.476 0.004c83.116 0 150.494-20.85 150.494-46.568v-48.578c0 25.72-67.378 46.568-150.494 46.568z" fill="#C0C0C0" /><path d="M521.316 762.02c0 25.718 67.378 46.568 150.494 46.568s150.494-20.85 150.494-46.568v-48.578c0 25.718-67.378 46.568-150.494 46.568s-150.494-20.85-150.494-46.568v48.578z" fill="#E0E0E0" /><path d="M671.81 760.01l-0.476-0.004v48.578l0.476 0.004c83.116 0 150.494-20.85 150.494-46.568v-48.578c0 25.72-67.378 46.568-150.494 46.568z" fill="#C0C0C0" /><path d="M521.316 827.586c0 25.718 67.378 46.568 150.494 46.568s150.494-20.85 150.494-46.568v-48.578c0 25.718-67.378 46.568-150.494 46.568s-150.494-20.85-150.494-46.568v48.578z" fill="#E0E0E0" /><path d="M671.81 825.576l-0.476-0.004v48.578l0.476 0.004c83.116 0 150.494-20.848 150.494-46.568v-48.578c0 25.72-67.378 46.568-150.494 46.568z" fill="#C0C0C0" /><path d="M466.64 626.438h-175.672l25.298-130.392h125.076z" fill="#E0E0E0" /><path d="M441.342 496.046h-62.866v130.392h88.162z" fill="#C0C0C0" /><path d="M166.68 201.04h424.24v300.5H166.68z" fill="#1A1A1A" /><path d="M378.48 201.04h212.44v300.5H378.48z"  /><path d="M195.64 229.3h366.34v284.92H195.64z" fill="#35CCFF" /><path d="M378.48 229.3h183.5v284.92h-183.5z" fill="#00BAFF" /><path d="M166.68 444.34h424.24v86.66H166.68z" fill="#FFFFFF" /><path d="M378.48 444.34h212.44v86.66H378.48z" fill="#E0E0E0" /><path d="M378.8 482.86m-18.678 0a18.678 18.678 0 1 0 37.356 0 18.678 18.678 0 1 0-37.356 0Z" fill="#E0E0E0" /><path d="M378.804 464.186c-0.11 0-0.218 0.014-0.328 0.016v37.322c0.11 0.002 0.216 0.016 0.328 0.016a18.678 18.678 0 1 0 0-37.354z" fill="#C0C0C0" /></svg>