<?xml version="1.0" standalone="no"?><!DOCTYPE svg PUBLIC "-//W3C//DTD SVG 1.1//EN" "http://www.w3.org/Graphics/SVG/1.1/DTD/svg11.dtd"><svg class="icon" width="128px" height="128.00px" viewBox="0 0 1024 1024" version="1.1" xmlns="http://www.w3.org/2000/svg"><path d="M576 872H332l16.6-124h210.8l16.6 124z" fill="#ADB5BD" /><path d="M256 860m25.98 0l344.04 0q25.98 0 25.98 25.98l0 0.04q0 25.98-25.98 25.98l-344.04 0q-25.98 0-25.98-25.98l0-0.04q0-25.98 25.98-25.98Z" fill="#CED4DA" /><path d="M54 112m64 0l672 0q64 0 64 64l0 542q0 64-64 64l-672 0q-64 0-64-64l0-542q0-64 64-64Z" fill="#495057" /><path d="M854 670v48a64 64 0 0 1-64 64H118a64 64 0 0 1-64-64v-48z" fill="#CED4DA" /><path d="M116.74 175.66m4 0l661.34 0q4 0 4 4l0 430q0 4-4 4l-661.34 0q-4 0-4-4l0-430q0-4 4-4Z" fill="#FFFFFF" /><path d="M547.5 426.44h-173.38l-35.64-123.1 224-0.14a25.44 25.44 0 0 1 24.98 30.54l-14.98 72.42a25.48 25.48 0 0 1-24.98 20.28z" fill="#F06595" /><path d="M550 449.2h-143.36a13.38 13.38 0 0 1-12.82-9.6l-45.22-156a44 44 0 0 0-42-31.52h-43.36a15.16 15.16 0 1 0 0 30.34h43.26a13.38 13.38 0 0 1 12.82 9.6l45.22 156a44 44 0 0 0 42 31.52H550a15.16 15.16 0 1 0 0-30.34z" fill="#845EF7" /><path d="M405.1 521.24a22.86 22.76 0 1 0 45.72 0 22.86 22.76 0 1 0-45.72 0Z" fill="#845EF7" /><path d="M500.34 521.24a22.86 22.76 0 1 0 45.72 0 22.86 22.76 0 1 0-45.72 0Z" fill="#845EF7" /><path d="M970 388m0 29.98l0 464.04q0 29.98-29.98 29.98l-240.04 0q-29.98 0-29.98-29.98l0-464.04q0-29.98 29.98-29.98l240.04 0q29.98 0 29.98 29.98Z" fill="#495057" /><path d="M944 460m0 2.94l0 374.12q0 2.94-2.94 2.94l-242.12 0q-2.94 0-2.94-2.94l0-374.12q0-2.94 2.94-2.94l242.12 0q2.94 0 2.94 2.94Z" fill="#F8F9FA" /><path d="M852 414m0 6l0 0q0 6-6 6l-52 0q-6 0-6-6l0 0q0-6 6-6l52 0q6 0 6 6Z" fill="#868E96" /><path d="M820 876m-22 0a22 22 0 1 0 44 0 22 22 0 1 0-44 0Z" fill="#868E96" /><path d="M726 490m8.04 0l171.92 0q8.04 0 8.04 8.04l0 99.92q0 8.04-8.04 8.04l-171.92 0q-8.04 0-8.04-8.04l0-99.92q0-8.04 8.04-8.04Z" fill="#E9ECEF" /><path d="M726 644m8.04 0l171.92 0q8.04 0 8.04 8.04l0 99.92q0 8.04-8.04 8.04l-171.92 0q-8.04 0-8.04-8.04l0-99.92q0-8.04 8.04-8.04Z" fill="#E9ECEF" /><path d="M734 800h172a8 8 0 0 1 8 8v32h-188v-32a8 8 0 0 1 8-8z" fill="#E9ECEF" /></svg>