<?xml version="1.0" standalone="no"?><!DOCTYPE svg PUBLIC "-//W3C//DTD SVG 1.1//EN" "http://www.w3.org/Graphics/SVG/1.1/DTD/svg11.dtd"><svg class="icon" width="128px" height="128.00px" viewBox="0 0 1024 1024" version="1.1" xmlns="http://www.w3.org/2000/svg">
<path d="M839.776 142h-56.544c2.528 0.016 5.056 0.288 7.456 0.704 1.744 0.288 3.504 0.576 5.248 1.168 1.6 0.432 3.2 1.024 4.672 1.744 11.072 4.96 19.68 14.288 23.76 25.808 1.456 4.368 2.336 9.328 2.336 14.288v478.4a43.68 43.68 0 0 1-43.728 43.728h-51.648v0.032h108.48a52.24 52.24 0 0 0 52.24-52.24V194.224a52.272 52.272 0 0 0-52.272-52.224z" fill="#DB785A" />
<path d="M839.776 715.872h-108.464v-16h108.464a44.288 44.288 0 0 0 44.24-44.24V194.24a44.288 44.288 0 0 0-44.24-44.24h-108.464v-16h108.464a60.32 60.32 0 0 1 60.24 60.24v461.408a60.32 60.32 0 0 1-60.24 60.224z" fill="#63312D" />
<path d="M824.352 171.408A44.576 44.576 0 0 0 800.592 145.6a24.384 24.384 0 0 0-4.672-1.744 34.32 34.32 0 0 0-5.248-1.168 45.344 45.344 0 0 0-7.728-0.736H93.472a43.68 43.68 0 0 0-43.728 43.728v478.4c0 1.456 0.144 3.056 0.288 4.512 0.144 2.048 0.432 4.08 1.024 6.128 0.736 3.36 2.048 6.56 3.648 9.472 2.048 4.08 4.816 7.728 8.016 10.784 2.256 2.288 4.8 4.24 7.488 5.968 0.464 0.288 0.96 0.512 1.424 0.784 2.56 1.504 5.28 2.72 8.144 3.68l0.128 0.064v-0.016c4.272 1.408 8.768 2.352 13.568 2.352h689.472a43.68 43.68 0 0 0 43.728-43.728v-478.4a45.52 45.52 0 0 0-2.32-14.272z" fill="rgba(255, 255, 255, 0.8)" />
<path d="M824.352 171.408a59.264 59.264 0 0 0-13.552-1.6H103.68c-14.432 0-26.24 11.664-26.24 26.096v496.048c0 4.816 1.024 9.328 2.48 13.552a41.072 41.072 0 0 1-17.2-10.496 41.44 41.44 0 0 1-8.016-10.784 41.664 41.664 0 0 1-4.672-15.6 47.44 47.44 0 0 1-0.288-4.512v-478.4a43.68 43.68 0 0 1 43.728-43.728h689.472c2.624 0 5.248 0.288 7.728 0.736 1.744 0.288 3.504 0.576 5.248 1.168 1.6 0.432 3.2 1.024 4.672 1.744 11.072 4.944 19.68 14.272 23.76 25.776z" fill="#FFC8BB" />
<path d="M782.992 715.872H93.456a51.792 51.792 0 0 1-51.728-51.728V185.728a51.792 51.792 0 0 1 51.728-51.728h689.536a51.792 51.792 0 0 1 51.728 51.728v478.416a51.776 51.776 0 0 1-51.728 51.728zM93.456 150a35.776 35.776 0 0 0-35.728 35.728v478.416a35.776 35.776 0 0 0 35.728 35.728h689.536a35.776 35.776 0 0 0 35.728-35.728V185.728a35.76 35.76 0 0 0-35.728-35.728H93.456z" fill="#63312D" />
<path d="M113.936 205.12h652.928v403.792H113.936z" fill="#F8F3F3" /><path d="M141.68 233.184h625.184V205.12H113.936v403.792h27.744z" fill="#E1DDDD" /><path d="M766.864 616.912H113.936a8 8 0 0 1-8-8V205.12a8 8 0 0 1 8-8H766.88a8 8 0 0 1 8 8v403.792a8.016 8.016 0 0 1-8.016 8z m-644.928-16H758.88V213.12H121.936v387.792z" fill="#63312D" />
<path d="M374.992 707.872h163.952v110.992H374.992z" fill="#F7DB9B" /><path d="M374.992 707.872h163.952v28.496H374.992z" fill="#EDCB85" />
<path d="M478.656 707.92h60.352v110.912h-60.352z" fill="#EFC36A" /><path d="M478.656 707.92h60.352v28.496h-60.352z" fill="#DBAB56" />
<path d="M538.96 826.88H375.008a8 8 0 0 1-8-8v-111.008a8 8 0 0 1 8-8h163.952a8 8 0 0 1 8 8v111.008a8 8 0 0 1-8 8z m-155.952-16h147.952v-95.008h-147.952v95.008z" fill="#63312D" />
<path d="M470.704 707.872h16v111.008h-16z" fill="#63312D" />
<path d="M608.176 839.616A29.408 29.408 0 0 0 592 821.248a23.648 23.648 0 0 0-6.992-1.888 25.504 25.504 0 0 0-4.672-0.432H290.4a29.056 29.056 0 0 0-29.152 29.152v33.968h348.24v-33.968c0-2.928-0.432-5.84-1.312-8.464z" fill="#F9A287" />
<path d="M608.176 839.616H295.36a12.416 12.416 0 0 0-12.544 12.384v30.032h-21.568v-33.968c0-16.176 12.976-29.152 29.152-29.152h289.936c1.6 0 3.056 0.144 4.672 0.432 2.336 0.288 4.816 0.88 6.992 1.888 7.728 3.504 13.696 10.064 16.176 18.384z" fill="#FFC8BB" />
<path d="M609.424 890H261.184a8 8 0 0 1-8-8v-33.968a37.2 37.2 0 0 1 37.152-37.152h289.936a37.2 37.2 0 0 1 37.152 37.152v33.968a8 8 0 0 1-8 8z m-340.24-16h332.24v-25.968c0-11.664-9.488-21.152-21.152-21.152H290.336c-11.664 0-21.152 9.488-21.152 21.152v25.968z" fill="#63312D" />
<path d="M623.632 818.864h-43.36c16.096 0 29.152 13.056 29.152 29.152v33.968h43.36v-33.968a29.152 29.152 0 0 0-29.152-29.152z" fill="#DB785A" />
<path d="M652.784 890h-43.36a8 8 0 0 1-8-8v-33.968c0-11.664-9.488-21.152-21.152-21.152a8 8 0 0 1 0-16h43.344a37.2 37.2 0 0 1 37.152 37.152v33.968a7.984 7.984 0 0 1-7.984 8z m-35.36-16h27.36v-25.968c0-11.664-9.488-21.152-21.152-21.152h-12.832c4.176 6 6.624 13.312 6.624 21.152v25.968z" fill="#63312D" />
<path d="M958.272 881.312H718.016a16 16 0 0 1-16-16V509.04a16 16 0 0 1 16-16h240.272a16 16 0 0 1 16 16v356.272c-0.016 8.832-7.168 16-16.016 16z" fill="#82D9FF" /><path d="M958.288 889.312H718.016c-13.232 0-24-10.768-24-24V509.04c0-13.232 10.768-24 24-24h240.272c13.232 0 24 10.768 24 24v356.272c0 13.232-10.768 24-24 24zM718.016 501.04a8 8 0 0 0-8 8v356.272a8 8 0 0 0 8 8h240.272a8 8 0 0 0 8-8V509.04a8 8 0 0 0-8-8H718.016z" fill="#63312D" />
<path d="M198.672 881.312H65.744a16 16 0 0 1-16-16V624.912a16 16 0 0 1 16-16h132.928a16 16 0 0 1 16 16v240.4a16 16 0 0 1-16 16z" fill="#82D9FF" />
<path d="M198.672 889.312H65.744c-13.232 0-24-10.768-24-24V624.912c0-13.232 10.768-24 24-24h132.944c13.232 0 24 10.768 24 24v240.4a24.048 24.048 0 0 1-24.016 24zM65.744 616.912a8 8 0 0 0-8 8v240.4a8 8 0 0 0 8 8h132.944a8 8 0 0 0 8-8V624.912a8 8 0 0 0-8-8H65.744z" fill="#63312D" />
<path d="M82.928 643.712h98.576V831.04H82.928z" fill="#F8F3F3" /><path d="M181.504 839.04H82.928a8 8 0 0 1-8-8V643.712a8 8 0 0 1 8-8h98.576a8 8 0 0 1 8 8V831.04a8 8 0 0 1-8 8z m-90.576-16h82.576V651.712H90.928V823.04z" fill="#63312D" />
<path d="M742.688 533.04h190.928v280H742.688z" fill="#F8F3F3" /><path d="M933.616 821.04H742.672a8 8 0 0 1-8-8v-280a8 8 0 0 1 8-8H933.6a8 8 0 0 1 8 8v280a7.968 7.968 0 0 1-7.984 8z m-182.944-16H925.6v-264H750.672v264z" fill="#63312D" />
<path d="M123.008 847.792h16v16h-16zM826.432 836.048h23.44v23.44h-23.44z" fill="#F8F3F3" /><path d="M190.896 276.352h499.008v97.008H190.896zM190.896 407.008h98.448v130.672h-98.448z" fill="#82D9FF" /><path d="M326.672 411.04h363.216v16H326.672zM326.672 456.736h363.216v16H326.672zM326.672 502.432h307.328v16H326.672z" fill="#63312D" /><path d="M784.016 572.048h108v45.008h-108z" fill="#F9A287" /><path d="M784.016 639.04h108v16h-108zM784.016 676.544h108v16h-108zM784.016 714.048h108v16h-108zM784.016 751.552h108v16h-108z" fill="#63312D" /><path d="M110.016 673.04h44.672v29.328H110.016z" fill="rgba(255, 255, 255, 0.8)" /><path d="M110.016 714.048h44.672v16H110.016zM110.016 747.04h44.672v16H110.016zM110.016 780.048h44.672v16H110.016z" fill="#63312D" /></svg>