<?xml version="1.0" standalone="no"?><!DOCTYPE svg PUBLIC "-//W3C//DTD SVG 1.1//EN" "http://www.w3.org/Graphics/SVG/1.1/DTD/svg11.dtd"><svg class="icon" width="128px" height="128.00px" viewBox="0 0 1024 1024" version="1.1" xmlns="http://www.w3.org/2000/svg"><path d="M902.4 153.6v524.8c0 27.2-20.8 48-48 48H97.6c-4.8 0-9.6-1.6-14.4-3.2-3.2 0-6.4-1.6-9.6-3.2 0 0-1.6 0-1.6-1.6-3.2-1.6-6.4-4.8-8-6.4-3.2-3.2-6.4-8-8-11.2-1.6-3.2-3.2-6.4-3.2-11.2 0-1.6-1.6-4.8-1.6-6.4V153.6c0-27.2 20.8-48 48-48h756.8c3.2 0 6.4 0 8 1.6 1.6 0 3.2 0 6.4 1.6 1.6 0 3.2 1.6 4.8 1.6 12.8 4.8 20.8 16 25.6 28.8 0 3.2 1.6 9.6 1.6 14.4z" fill="#F9A287" /><path d="M916.8 105.6h-62.4 8c1.6 0 3.2 0 6.4 1.6 1.6 0 3.2 1.6 4.8 1.6 12.8 4.8 20.8 16 25.6 28.8 1.6 4.8 3.2 9.6 3.2 16v524.8c0 27.2-20.8 48-48 48h-56 118.4c32 0 57.6-25.6 57.6-57.6V163.2c0-32-25.6-57.6-57.6-57.6z" fill="#DB785A" /><path d="M899.2 137.6c-4.8-1.6-9.6-1.6-14.4-1.6H108.8c-16 0-28.8 12.8-28.8 28.8v544c0 4.8 1.6 9.6 3.2 14.4-6.4-1.6-14.4-6.4-19.2-11.2-3.2-3.2-6.4-8-8-11.2-1.6-3.2-3.2-6.4-3.2-11.2 0-1.6-1.6-4.8-1.6-6.4V153.6c0-27.2 20.8-48 48-48h756.8c3.2 0 6.4 0 8 1.6 1.6 0 3.2 0 6.4 1.6 1.6 0 3.2 1.6 4.8 1.6 11.2 4.8 20.8 14.4 24 27.2z" fill="#FFCDC0" /><path d="M120 174.4h716.8v443.2H120z" fill="#FFFBE1" /><path d="M150.4 206.4h686.4v-32H120v443.2h30.4z" fill="#E0CA9D" /><path d="M836.8 625.6H120c-4.8 0-8-3.2-8-8V174.4c0-4.8 3.2-8 8-8h716.8c4.8 0 8 3.2 8 8v443.2c0 4.8-3.2 8-8 8zM128 609.6h700.8V182.4H128v427.2z" fill="#63312D" /><path d="M406.4 726.4h179.2V848H406.4z" fill="#FFFBE1" /><path d="M406.4 726.4h179.2v32H406.4z" fill="#D8C18F" /><path d="M520 726.4h65.6V848h-65.6z" fill="#DDD8C0" /><path d="M520 726.4h65.6v32h-65.6z" fill="#BFA064" /><path d="M664 881.6v36.8H281.6v-36.8c0-17.6 14.4-32 32-32h323.2c3.2 0 4.8 1.6 8 1.6 8 3.2 14.4 11.2 17.6 20.8 1.6 3.2 1.6 6.4 1.6 9.6z" fill="#F9A287" /><path d="M662.4 872H320c-8 0-14.4 6.4-14.4 12.8v33.6h-24v-36.8c0-17.6 14.4-32 32-32h323.2c3.2 0 4.8 1.6 8 1.6 8 4.8 14.4 11.2 17.6 20.8z" fill="#FFCDC0" /><path d="M680 849.6h-48c17.6 0 32 14.4 32 32v36.8h48v-36.8c0-19.2-14.4-32-32-32z" fill="#DB785A" /><path d="M916.8 97.6H97.6c-30.4 0-56 25.6-56 56v524.8c0 30.4 25.6 56 56 56h300.8v105.6h-84.8c-22.4 0-40 17.6-40 40v36.8c0 4.8 3.2 8 8 8h430.4c4.8 0 8-3.2 8-8V880c0-22.4-17.6-40-40-40h-84.8v-105.6H916.8c36.8 0 65.6-28.8 65.6-65.6V163.2c0-36.8-28.8-65.6-65.6-65.6zM414.4 734.4H512v105.6h-97.6v-105.6z m241.6 176H289.6v-28.8c0-12.8 11.2-24 24-24h316.8c12.8 0 24 11.2 24 24v28.8z m24-52.8c12.8 0 24 11.2 24 24v28.8h-32v-28.8-8-1.6c0-1.6-1.6-3.2-1.6-4.8 0 0 0-1.6-1.6-1.6 0-1.6-1.6-3.2-3.2-4.8 0 0 0-1.6-1.6-1.6v-1.6h16z m-100.8-16H528V736h49.6v105.6z m275.2-123.2H97.6c-22.4 0-40-17.6-40-40V153.6c0-22.4 17.6-40 40-40h756.8c22.4 0 40 17.6 40 40v524.8c0 22.4-17.6 40-40 40z m112-48c0 27.2-22.4 49.6-49.6 49.6h-24c11.2-9.6 17.6-24 17.6-40V153.6c0-16-6.4-30.4-17.6-40h24c27.2 0 49.6 22.4 49.6 49.6v507.2z" fill="#63312D" /><path d="M206.4 401.6h60.8v139.2h-60.8z" fill="#84DBFF" /><path d="M304 348.8h60.8v192H304z" fill="#F9DD9D" /><path d="M400 284.8h60.8v256H400z" fill="#9CE2C2" /><path d="M782.4 412.8c0 40-17.6 75.2-46.4 99.2-22.4 17.6-49.6 28.8-81.6 28.8s-59.2-11.2-81.6-28.8c-28.8-24-46.4-59.2-46.4-99.2 0-70.4 57.6-128 128-128s128 57.6 128 128z" fill="#F9DD9D" /><path d="M736 510.4c-22.4 17.6-49.6 28.8-81.6 28.8s-59.2-11.2-81.6-28.8l81.6-99.2 81.6 99.2z" fill="#84DBFF" /><path d="M654.4 284.8v128L572.8 512c-28.8-24-46.4-59.2-46.4-99.2 0-70.4 57.6-128 128-128z" fill="#F9A287" /><path d="M470.4 532.8V284.8c0-4.8-3.2-8-8-8H400c-4.8 0-8 3.2-8 8v248h-19.2V348.8c0-4.8-3.2-8-8-8H304c-4.8 0-8 3.2-8 8v184h-19.2v-131.2c0-4.8-3.2-8-8-8H208c-4.8 0-8 3.2-8 8v131.2h-30.4v16H499.2v-16h-28.8z m-256 0v-123.2h44.8v123.2h-44.8z m97.6 0v-176h44.8v176h-44.8z m96 0v-240h44.8v240h-44.8zM654.4 276.8c-75.2 0-136 60.8-136 136s60.8 136 136 136 136-60.8 136-136-60.8-136-136-136z m-120 136c0-64 49.6-115.2 112-120v116.8l-73.6 89.6c-24-20.8-38.4-52.8-38.4-86.4z m49.6 97.6l70.4-84.8 70.4 84.8c-19.2 14.4-43.2 22.4-70.4 22.4-25.6 0-49.6-9.6-70.4-22.4z m152-11.2l-73.6-89.6v-116.8c62.4 4.8 112 56 112 120 0 33.6-14.4 65.6-38.4 86.4z" fill="#63312D" /></svg>