<?xml version="1.0" standalone="no"?><!DOCTYPE svg PUBLIC "-//W3C//DTD SVG 1.1//EN" "http://www.w3.org/Graphics/SVG/1.1/DTD/svg11.dtd"><svg class="icon" width="128px" height="128.00px" viewBox="0 0 1024 1024" version="1.1" xmlns="http://www.w3.org/2000/svg"><path d="M839.776 198.704h-56.544c2.528 0.016 5.056 0.288 7.456 0.704 1.744 0.288 3.504 0.576 5.248 1.168 1.6 0.432 3.2 1.024 4.672 1.744 11.072 4.96 19.68 14.288 23.76 25.808 1.456 4.368 2.336 9.328 2.336 14.288v478.4a43.68 43.68 0 0 1-43.728 43.728h-51.648v0.032h108.48a52.24 52.24 0 0 0 52.24-52.24V250.944a52.288 52.288 0 0 0-52.272-52.24z" fill="#DB785A" /><path d="M839.776 772.576h-108.464v-16h108.464a44.288 44.288 0 0 0 44.24-44.24V250.944a44.288 44.288 0 0 0-44.24-44.24h-108.464v-16h108.464a60.32 60.32 0 0 1 60.24 60.24v461.408a60.32 60.32 0 0 1-60.24 60.224z" fill="#63312D" /><path d="M824.352 228.128a44.576 44.576 0 0 0-23.76-25.808 24.384 24.384 0 0 0-4.672-1.744 34.32 34.32 0 0 0-5.248-1.168 45.344 45.344 0 0 0-7.728-0.736H93.472a43.68 43.68 0 0 0-43.728 43.728v478.4c0 1.456 0.144 3.056 0.288 4.512 0.144 2.048 0.432 4.08 1.024 6.128 0.736 3.36 2.048 6.56 3.648 9.472 2.048 4.08 4.816 7.728 8.016 10.784 2.256 2.288 4.8 4.24 7.488 5.968 0.464 0.288 0.96 0.512 1.424 0.784 2.56 1.504 5.28 2.72 8.144 3.68l0.128 0.064v-0.016c4.272 1.408 8.768 2.352 13.568 2.352h689.472a43.68 43.68 0 0 0 43.728-43.728v-478.4a45.376 45.376 0 0 0-2.32-14.272z" fill="#F9A287" /><path d="M824.352 228.128a59.264 59.264 0 0 0-13.552-1.6H103.68c-14.432 0-26.24 11.664-26.24 26.096v496.048c0 4.816 1.024 9.328 2.48 13.552a41.072 41.072 0 0 1-17.2-10.496 41.44 41.44 0 0 1-8.016-10.784 41.664 41.664 0 0 1-4.672-15.6 47.44 47.44 0 0 1-0.288-4.512v-478.4a43.68 43.68 0 0 1 43.728-43.728h689.472c2.624 0 5.248 0.288 7.728 0.736 1.744 0.288 3.504 0.576 5.248 1.168a44.432 44.432 0 0 1 28.432 27.52z" fill="#FFC8BB" /><path d="M782.992 772.576H93.456a51.776 51.776 0 0 1-51.728-51.728V242.432a51.792 51.792 0 0 1 51.728-51.728h689.536a51.776 51.776 0 0 1 51.728 51.728v478.416a51.776 51.776 0 0 1-51.728 51.728zM93.456 206.704a35.76 35.76 0 0 0-35.728 35.728v478.416a35.776 35.776 0 0 0 35.728 35.728h689.536a35.76 35.76 0 0 0 35.728-35.728V242.432a35.76 35.76 0 0 0-35.728-35.728H93.456z" fill="#63312D" /><path d="M113.936 261.824h652.928v403.792H113.936z" fill="#F8F3F3" /><path d="M141.68 289.904h625.184v-28.08H113.936v403.792h27.744z" fill="#E1DDDD" /><path d="M766.864 673.616H113.936a8 8 0 0 1-8-8V261.824a8 8 0 0 1 8-8H766.88a8 8 0 0 1 8 8v403.792a8.016 8.016 0 0 1-8.016 8z m-644.928-16H758.88V269.824H121.936v387.792z" fill="#63312D" /><path d="M374.992 764.576h163.952v110.992H374.992z" fill="#F7DB9B" /><path d="M374.992 764.576h163.952v28.496H374.992z" fill="#EDCB85" /><path d="M478.656 764.624h60.352v110.912h-60.352z" fill="#EFC36A" /><path d="M478.656 764.624h60.352v28.496h-60.352z" fill="#DBAB56" /><path d="M538.96 883.584H375.008a8 8 0 0 1-8-8v-111.008a8 8 0 0 1 8-8h163.952a8 8 0 0 1 8 8v111.008a8 8 0 0 1-8 8z m-155.952-16h147.952v-95.008h-147.952v95.008z" fill="#63312D" /><path d="M470.704 764.576h16v111.008h-16z" fill="#63312D" /><path d="M608.176 896.32A29.408 29.408 0 0 0 592 877.952a23.648 23.648 0 0 0-6.992-1.888 25.504 25.504 0 0 0-4.672-0.432H290.4a29.056 29.056 0 0 0-29.152 29.152v33.968h348.24v-33.968c0-2.928-0.432-5.84-1.312-8.464z" fill="#F9A287" /><path d="M608.176 896.32H295.36a12.416 12.416 0 0 0-12.544 12.384v30.032h-21.568v-33.968c0-16.176 12.976-29.152 29.152-29.152h289.936c1.6 0 3.056 0.144 4.672 0.432 2.336 0.288 4.816 0.88 6.992 1.888 7.728 3.52 13.696 10.08 16.176 18.384z" fill="#FFC8BB" /><path d="M609.424 946.688H261.184a8 8 0 0 1-8-8v-33.968a37.2 37.2 0 0 1 37.152-37.152h289.936a37.2 37.2 0 0 1 37.152 37.152v33.968a8 8 0 0 1-8 8z m-340.24-16h332.24v-25.968c0-11.664-9.488-21.152-21.152-21.152H290.336c-11.664 0-21.152 9.488-21.152 21.152v25.968z" fill="#63312D" /><path d="M623.632 875.584h-43.36c16.096 0 29.152 13.056 29.152 29.152v33.968h43.36v-33.968a29.152 29.152 0 0 0-29.152-29.152z" fill="#DB785A" /><path d="M652.784 946.688h-43.36a8 8 0 0 1-8-8v-33.968c0-11.664-9.488-21.152-21.152-21.152a8 8 0 0 1 0-16h43.344a37.2 37.2 0 0 1 37.152 37.152v33.968a7.968 7.968 0 0 1-7.984 8z m-35.36-16h27.36v-25.968c0-11.664-9.488-21.152-21.152-21.152h-12.832c4.176 6 6.624 13.312 6.624 21.152v25.968z" fill="#63312D" /><path d="M652.864 443.536c41.616-26.992 100.56-76.464 161.584-137.504 103.728-103.728 174.176-201.456 157.344-218.288-16.832-16.832-114.56 53.616-218.288 157.344-61.024 61.024-110.512 119.968-137.504 161.584l36.864 36.864z" fill="#82D9FF" /><path d="M652.864 451.536a8.048 8.048 0 0 1-5.664-2.336l-36.864-36.864a8 8 0 0 1-1.056-10c28.496-43.968 79.008-103.344 138.56-162.896 50.448-50.464 101.136-94.752 142.704-124.704 62.24-44.88 79.392-40.112 86.896-32.624 7.488 7.488 12.24 24.64-32.64 86.896-29.968 41.568-74.256 92.256-124.704 142.704-59.536 59.536-118.912 110.032-162.896 138.544a8 8 0 0 1-4.336 1.28z m-26.576-45.904l27.632 27.632c42.496-28.48 98.528-76.512 154.88-132.88C925.168 184 972.336 104.88 966.032 93.28c-11.296-6.064-90.48 41.072-206.864 157.472-56.384 56.368-104.416 112.384-132.88 154.88z" fill="#63312D" /><path d="M507.84 474.848c-2.16 10.976-4.016 22.032-8.272 32.608-8.384 20.8-21.44 39.888-40.032 52.832a81.248 81.248 0 0 1-3.12 2.08s110.336 45.36 178.384-32.496a73.68 73.68 0 0 0-104.208-104.208c-7.04 7.04-12.592 15.504-16.224 24.768-3.12 7.92-4.912 16.128-6.528 24.416z" fill="#F7DB9B" /><path d="M528.72 583.296c-41.552 0-74.72-13.28-75.344-13.536a7.968 7.968 0 0 1-1.264-14.144l2.848-1.904c15.744-10.976 28.608-28 37.168-49.264 3.504-8.672 5.264-17.792 7.136-27.44l0.72-3.712c1.632-8.272 3.488-17.056 6.928-25.792 4-10.208 10.24-19.712 18.016-27.504a81.808 81.808 0 0 1 115.536 0 81.808 81.808 0 0 1 0 115.536c-32.896 37.664-75.504 47.76-111.744 47.76z m-55.296-23.776c30.8 8.64 105.776 21.824 155.36-34.912 25.984-26 25.984-67.68 0.368-93.296a65.792 65.792 0 0 0-92.912 0c-6.24 6.24-11.232 13.856-14.432 22.032-2.944 7.504-4.64 15.488-6.112 23.024l-0.72 3.664c-1.92 9.968-3.92 20.288-8 30.384-8.016 19.936-19.504 36.688-33.552 49.104zM672.096 326.464l11.312-11.312 61.376 61.376-11.312 11.312z" fill="#63312D" /><path d="M185.344 331.712h134.672v264h-134.672z" fill="#82D9FF" /><path d="M362.672 338.784h217.6v16h-217.6zM362.672 397.088h130.672v16h-130.672zM362.672 455.392h108.8v16h-108.8zM362.672 513.696h93.904v16h-93.904zM362.672 572h65.328v16h-65.328z" fill="#63312D" /></svg>