<?xml version="1.0" standalone="no"?><!DOCTYPE svg PUBLIC "-//W3C//DTD SVG 1.1//EN" "http://www.w3.org/Graphics/SVG/1.1/DTD/svg11.dtd"><svg class="icon" width="128px" height="128.00px" viewBox="0 0 1024 1024" version="1.1" xmlns="http://www.w3.org/2000/svg"><path d="M128 668.4z m225.2 137.2c-0.4-7.2-1.2-14.8-2.4-22v-0.4c-2.8-16.8-8.4-33.2-16-48-1.2-2.4-2.4-4.4-3.6-6.8-0.4-0.4-0.4-0.8-0.8-1.2-0.8-1.2-1.2-2.4-2-3.2l-2.4-3.6c-16.8-25.2-40.4-46.4-68-59.2-20-9.6-42.4-15.6-64.8-15.6H178.8c-17.6 0.4-36 4.4-54.8 12.4-0.4 0-0.8 0.4-1.2 0.4-1.6 0.8-3.6 1.6-5.2 2.4l-5.6 2.8 0.8 1.6s0 0.4 0.4 0.4c0.4 0.4 0.4 0.8 0.4 1.2 4 7.6 6.8 15.2 7.2 24v2.8c0 29.2-23.2 52.8-52 54h-6.8c-9.2-0.8-16.8-4.4-25.2-8.4l-2.4 6c-0.8 1.6-1.6 3.2-2 5.2-8.8 22.4-12.8 46-11.6 70.8 4.4 84 71.2 151.6 154.8 157.2 3.6 0.4 7.6 0.4 11.6 0.4 42.4 0 82.4-15.6 113.2-44.4 0.8-0.4 1.2-1.2 2-1.6 22-21.2 37.6-48 45.6-77.6 3.2-12.4 5.6-25.2 5.6-38V812c-0.4-2.8-0.4-4.4-0.4-6.4z m-12.4 10.4c-1.2 36-15.2 70.8-38.8 97.6-2.8 3.2-5.6 6.4-8.8 9.2-31.2 30-73.6 45.2-117.2 42.4-77.6-5.2-139.6-68-143.6-145.6-1.2-22.4 2.4-44 10.4-64.8 0.4 0 0.4 0 0.8 0.4 7.2 2.4 14.8 4 22.8 4h3.2c6.4-0.4 13.2-1.6 19.6-3.6 22-7.6 37.6-26.4 42-48.8 2.4-12 2-24.8-2.8-36.4 0-0.4-0.4-1.2-0.8-1.6 16-6.8 33.6-11.2 51.2-11.6h7.6c17.6 0 35.2 2.4 51.6 8.4 32 11.6 60 33.6 78.4 62.8 14 22 22.4 47.6 24 73.2 0 1.6 0 3.2 0.4 4.8v4.8c0.4 1.6 0 3.2 0 4.8z" fill="#4A555F" /><path d="M120.4 690v2.4-0.8-1.6z m-3.6-16.4c2 5.2 3.2 10.8 3.6 16.4-0.4-6-1.2-11.6-3.6-16.4z m-39.6 72.4c2.8-0.4 5.2-1.2 8-2 15.6-5.2 26.8-17.6 32-32.8-6 17.2-21.2 30.8-40 34.8z m40-35.2c0.4-1.6 0.8-2.8 1.2-4.4 0 1.6-0.4 2.8-1.2 4.4z m15.2-21.2c0-1.2 0-2.4-0.4-3.6-0.8-5.6-2-10.8-3.6-16 0-0.4-0.4-1.2-0.8-1.6-8-20-26-35.6-47.2-40.4-4.8-1.2-9.6-1.6-14.4-1.6-2 0-4 0-6 0.4-33.6 3.2-60 31.6-60 66 0 24 12.8 44.8 32 56.8 9.2 5.6 19.6 8.8 30.4 9.6h4c10.4 0 20.8-2.4 30-7.2 7.6-4 14.8-9.6 20.4-16.4 10.8-12.8 16.4-29.6 15.6-46z m-12 3.2c0 15.6-6.8 30.4-18.4 40.4-7.2 6.4-16.4 11.2-26.4 12.8-3.2 0.4-6.4 0.8-9.6 0.8h-4.8c-10-0.8-20-4.8-28-10.8-6.8-5.2-12.8-12.4-16.4-20-3.2-7.2-5.2-15.2-5.2-23.2 0-30 24.4-54 54-54 14 0 27.6 5.6 37.6 15.2 9.6 9.6 16 22.8 16.4 36 0.8 0.8 0.8 1.6 0.8 2.8z" fill="#4A555F" /><path d="M714.8 204c0 9.6 0.8 19.2 2.8 28.4H345.2l4.4-11.2c2.4-5.6 3.2-11.2 3.2-17.2 0-8.4-2-16.4-6.4-23.2l-7.2-12h379.6c-2.4 11.2-4 22.8-4 35.2zM121.2 232.4l-4.4-11.2c-2.4-5.6-3.2-11.2-3.2-17.2 0-8.4 2-16.4 6.4-23.2l7.2-12c-21.6 0-36.4 17.6-36.4 39.2v24.4h30.4z" fill="#F68F6F" /><path d="M66.4 247.6h659.2v12H66.4zM157.6 234.8c-16.8 0-30.8-14-30.8-30.8s14-30.8 30.8-30.8 30.8 14 30.8 30.8-13.6 30.8-30.8 30.8z m0-49.6c-10.4 0-18.8 8.4-18.8 18.8s8.4 18.8 18.8 18.8 18.8-8.4 18.8-18.8-8.4-18.8-18.8-18.8zM232 234.8c-16.8 0-30.8-14-30.8-30.8s14-30.8 30.8-30.8 30.8 14 30.8 30.8-14 30.8-30.8 30.8z m0-49.6c-10.4 0-18.8 8.4-18.8 18.8s8.4 18.8 18.8 18.8 18.8-8.4 18.8-18.8c-0.4-10.4-8.8-18.8-18.8-18.8zM306 234.8c-16.8 0-30.8-14-30.8-30.8s14-30.8 30.8-30.8 30.8 14 30.8 30.8-13.6 30.8-30.8 30.8z m0-49.6c-10.4 0-18.8 8.4-18.8 18.8s8.4 18.8 18.8 18.8 18.8-8.4 18.8-18.8-8.4-18.8-18.8-18.8z" fill="#4A555F" /><path d="M866.4 361.6c-86.8 0-157.6-70.8-157.6-157.6s70.8-157.6 157.6-157.6S1024 117.2 1024 204s-70.8 157.6-157.6 157.6z m0-303.2c-80 0-145.6 65.2-145.6 145.6 0 80 65.2 145.6 145.6 145.6S1012 284 1012 204s-65.2-145.6-145.6-145.6z" fill="#4A555F" /><path d="M866.4 335.2c-72.4 0-131.2-58.8-131.2-131.2s58.8-131.2 131.2-131.2 131.2 58.8 131.2 131.2-58.8 131.2-131.2 131.2z" fill="#E0E0E0" /><path d="M866.4 317.2c-4.4 0-8.4-0.4-12.8-0.8l1.2-12c3.6 0.4 7.6 0.8 11.6 0.8v12z m6.4-0.4l-0.8-12c3.6-0.4 7.6-0.8 11.2-1.2l2 12c-3.6 0.4-8 1.2-12.4 1.2z m-31.6-2.4c-4-0.8-8.4-2-12.4-3.6l4-11.6c3.6 1.2 7.2 2.4 10.8 3.2l-2.4 12z m56.8-2l-3.2-11.6c3.6-1.2 7.2-2.4 10.8-4l4.8 11.2c-4 2-8.4 3.2-12.4 4.4z m-81.2-6.8c-4-2-7.6-4-11.2-6.4l6.4-10.4c3.2 2 6.4 4 10 5.6l-5.2 11.2z m104.8-2.8l-6-10.4 9.6-6 7.2 10c-3.6 2-7.2 4.4-10.8 6.4zM795.6 292l-9.6-8.4 8.8-8.4c2.8 2.8 5.6 5.2 8.4 7.6l-7.6 9.2z m146.8-4.4l-8-8.8c2.8-2.4 5.6-5.2 8-8l9.2 8c-3.2 3.2-6 6-9.2 8.8z m-164.8-14c-2.8-3.2-5.2-6.8-7.2-10.4l10.4-6.4c2 3.2 4.4 6.4 6.4 9.2l-9.6 7.6z m181.6-4.8l-10-6.8c2-3.2 4.4-6.4 6-9.6l10.8 5.6c-2 3.6-4.4 7.2-6.8 10.8zM764 252c-2-4-3.6-8-4.8-12l11.6-4c1.2 3.6 2.8 7.2 4.4 10.4L764 252z m207.6-6l-11.2-4.4c1.6-3.6 2.8-7.2 3.6-10.8l11.6 3.2c-1.2 4-2.8 8-4 12zM756 228c-0.8-4-1.6-8.4-2-12.8l12-1.2c0.4 3.6 0.8 7.6 1.6 11.2l-11.6 2.8z m222-6.4l-12-2c0.4-3.6 0.8-7.6 1.2-11.2l12 0.4c0 4.4-0.4 8.4-1.2 12.8z m-212.4-19.2h-12c0-4.4 0.4-8.4 0.8-12.8l12 1.6c-0.4 3.6-0.8 7.6-0.8 11.2z m201.6-5.6c-0.4-4-0.8-7.6-1.6-11.2l12-2.4c0.8 4 1.2 8.4 1.6 12.8l-12 0.8zM768.4 180l-11.6-2.8c1.2-4 2.4-8.4 3.6-12.4l11.2 4.4c-1.2 3.2-2.4 7.2-3.2 10.8z m194.8-5.6c-1.2-3.6-2.4-7.2-4-10.8l11.2-4.8c1.6 4 3.2 8 4.4 12l-11.6 3.6z m-186.8-16l-10.8-5.6c2-3.6 4-7.6 6.4-11.2l10 6.8c-2 3.6-4 6.8-5.6 10z m177.6-4.8c-2-3.2-4-6.4-6.4-9.6l9.6-7.2 7.2 10.8-10.4 6z m-165.2-14l-9.2-7.6c2.8-3.2 5.6-6.4 8.8-9.2l8.4 8.8c-2.8 2-5.6 4.8-8 8z m151.6-4.4c-2.4-2.8-5.2-5.6-8.4-8l8-9.2c3.2 2.8 6.4 5.6 9.2 8.8l-8.8 8.4z m-135.2-11.6l-7.2-9.6c3.2-2.4 6.8-4.8 10.4-7.2l6.4 10.4c-3.2 2-6.4 4-9.6 6.4z m117.6-3.2c-3.2-2-6.4-4-10-6l5.6-10.8c3.6 2 7.6 4 10.8 6.4l-6.4 10.4zM824.8 112l-5.2-11.2 12-4.8 3.6 11.6c-3.2 1.6-6.8 2.8-10.4 4.4z m78-2.4l-10.8-3.6 3.2-11.6c4 1.2 8.4 2.4 12 4l-4.4 11.2z m-56.4-4.8l-2.4-12c4-0.8 8.4-1.6 12.8-1.6l1.2 12c-4 0.4-7.6 1.2-11.6 1.6z m34.4-0.8c-3.6-0.4-7.6-0.8-11.2-0.8l0.4-12c4.4 0 8.4 0.4 12.8 1.2l-2 11.6zM840 253.6l-44.8-45.2 8.8-8.8 36.4 37.2 80.4-79.2 8.4 8.4z" fill="#4A555F" /><path d="M802.4 370v67.6H157.6v-96h595.6c14.8 12 31.2 21.6 49.2 28.4z" fill="#F68F6F" /><path d="M157.6 499.2h642v12H157.6zM157.6 581.2h642v12H157.6z" fill="#4A555F" /><path d="M559.2 670.8h240.4v162.8h-240.4z" fill="#FFD552" /><path d="M310.8 666.4h168v12h-168zM374.4 746.4h104.4v12H374.4zM383.6 826.8h94.8v12H383.6zM186.8 924.8c-62.8 0-113.6-51.2-113.6-113.6 0-62.8 51.2-113.6 113.6-113.6 39.6 0 76 20 96.8 54 8 12.4 13.2 26.4 15.6 40.8 1.2 6.4 1.6 12.8 1.6 18.8 0 5.2-0.4 10.4-1.2 15.6-2 14.4-6.4 28-13.6 40.8-20.8 35.2-58.4 57.2-99.2 57.2z m0-215.6c-56 0-101.6 45.6-101.6 101.6 0 56 45.6 101.6 101.6 101.6 36.4 0 70.4-19.6 88.4-51.6 6.4-11.2 10.8-23.6 12.4-36.4 0.8-4.4 0.8-9.2 0.8-13.6 0-5.6-0.4-11.6-1.6-16.8-2-13.2-6.8-25.2-13.6-36.4-18.8-30.4-51.2-48.4-86.4-48.4z" fill="#4A555F" /><path d="M714.8 204c0 9.6 0.8 19.2 2.8 28.4H345.2l4.4-11.2c2.4-5.6 3.2-11.2 3.2-17.2 0-8.4-2-16.4-6.4-23.2l-7.2-12h379.6c-2.4 11.2-4 22.8-4 35.2zM121.2 232.4l-4.4-11.2c-2.4-5.6-3.2-11.2-3.2-17.2 0-8.4 2-16.4 6.4-23.2l7.2-12c-21.6 0-36.4 17.6-36.4 39.2v24.4h30.4z" fill="#F68F6F" /><path d="M66.4 247.6h659.2v12H66.4zM157.6 234.8c-16.8 0-30.8-14-30.8-30.8s14-30.8 30.8-30.8 30.8 14 30.8 30.8-13.6 30.8-30.8 30.8z m0-49.6c-10.4 0-18.8 8.4-18.8 18.8s8.4 18.8 18.8 18.8 18.8-8.4 18.8-18.8-8.4-18.8-18.8-18.8zM232 234.8c-16.8 0-30.8-14-30.8-30.8s14-30.8 30.8-30.8 30.8 14 30.8 30.8-14 30.8-30.8 30.8z m0-49.6c-10.4 0-18.8 8.4-18.8 18.8s8.4 18.8 18.8 18.8 18.8-8.4 18.8-18.8c-0.4-10.4-8.8-18.8-18.8-18.8zM306 234.8c-16.8 0-30.8-14-30.8-30.8s14-30.8 30.8-30.8 30.8 14 30.8 30.8-13.6 30.8-30.8 30.8z m0-49.6c-10.4 0-18.8 8.4-18.8 18.8s8.4 18.8 18.8 18.8 18.8-8.4 18.8-18.8-8.4-18.8-18.8-18.8z" fill="#4A555F" /><path d="M909.2 343.2c-13.6 4.4-28 6.4-42.8 6.4-62 0-117.2-39.2-137.2-97.6-2.4-6.8-4.4-13.6-5.6-20.8-1.6-8.8-2.4-18-2.4-27.2 0-11.2 1.2-22.8 4-34 1.6-7.2 4-14.4 6.8-21.2l3.6-8.4h-608c-9.2 0-18 2-26.4 5.2-4 1.6-8 3.6-11.6 6.4-3.6 2.4-7.2 5.2-10 8.4-4.8 4.8-8.8 10-11.6 15.6-5.2 9.6-8 20.8-8 32v430.8h6c10.8 0 21.6 3.6 30.8 10 9.6 6.4 14.8 14.8 20 24.8 22-10 45.2-16.8 69.6-16.8 37.2 0 74 13.6 102 38.4 26.4 23.6 44.4 55.6 50.4 90.4 1.6 8.4 2.4 17.2 2.4 25.6 0 39.2-15.6 74.8-40 104.8-1.6 1.6-3.2 4.4-5.2 5.2 0 0 0.4-0.4 1.6-0.4v12h552c37.2 0 67.2-30.4 67.2-67.2V340.8l-7.6 2.4z m-4.4 522.4c0 30.4-24.8 55.2-55.2 55.2H312.4c2-2.4 4.4-5.6 6.8-9.2l2-2.8c19.2-26.8 31.2-60 32-92.8v-5.2c0-9.2-1.2-18-2.4-27.2v-0.8c-6.4-36-24.4-69.2-51.2-94-8.4-7.6-17.6-14.8-27.2-20.8-24-14.4-51.6-24-80-24h-10.4c-19.6 0.4-40.8 4.4-58.8 12.8-0.4 0-0.8 0.4-1.2 0.4-3.6-4.8-5.6-8-7.2-9.6-2.8-3.2-6.4-6.4-10-8.8-8.8-6.4-19.2-10.8-30-12-0.8 0-2-0.4-2.8-0.4V208c0-9.2 2.4-18.4 6.8-26.4 2.4-4.8 5.6-8.8 9.6-12.8 2.4-2.4 5.2-4.8 8-6.8s6-3.6 9.6-5.2c6.8-2.8 14-4.4 21.6-4.4h590c-1.6 4.8-3.2 9.6-4.4 14.4-2.8 12-4.4 24.4-4.4 36.8 0 10 0.8 19.6 2.8 29.6 1.6 7.6 3.6 15.2 6 22.4 22 63.2 81.6 105.6 148.8 105.6 13.2 0 26-1.6 38.4-4.8v509.2z" fill="#4A555F" /><path d="M326.8 811.2c0 38-16 74.8-43.6 101.6-26 25.2-60.4 38.8-96.8 38.8-3.2 0-6.4 0-9.6-0.4-70.8-4.8-126.8-61.6-130.4-132.4-0.8-16 0.8-31.6 5.2-46.8 4 0.8 8.4 1.2 12.8 1.2-3.6 12-5.6 24.8-5.6 38 0 70.4 57.2 128 128 128 46 0 88.4-24.8 111.2-64.8 8-14.4 13.6-29.6 15.6-46 0.8-5.6 1.2-11.6 1.2-17.6 0-7.2-0.8-14.4-2-21.2-2.8-16.4-8.4-32-17.2-46-23.6-38-64-60.4-108.8-60.4-14 0-27.2 2.4-40 6.4 0-4.4-0.8-8.4-1.6-12.8 11.6-4 22.8-6 33.6-6h13.6c44.4 0 91.6 28.8 115.6 70.4 12.4 21.2 18.8 46 18.8 70z" fill="#71CDE1" /><path d="M186.8 924.8c-62.8 0-113.6-51.2-113.6-113.6 0-62.8 51.2-113.6 113.6-113.6 39.6 0 76 20 96.8 54 8 12.4 13.2 26.4 15.6 40.8 1.2 6.4 1.6 12.8 1.6 18.8 0 5.2-0.4 10.4-1.2 15.6-2 14.4-6.4 28-13.6 40.8-20.8 35.2-58.4 57.2-99.2 57.2z m0-215.6c-56 0-101.6 45.6-101.6 101.6 0 56 45.6 101.6 101.6 101.6 36.4 0 70.4-19.6 88.4-51.6 6.4-11.2 10.8-23.6 12.4-36.4 0.8-4.4 0.8-9.2 0.8-13.6 0-5.6-0.4-11.6-1.6-16.8-2-13.2-6.8-25.2-13.6-36.4-18.8-30.4-51.2-48.4-86.4-48.4z" fill="#4A555F" /><path d="M292.8 793.2H130v-38.8h148.4c7.2 11.6 12 24.8 14.4 38.8zM293.2 825.6c-2 14-6.4 26.8-13.2 38.8H130v-38.8h163.2z" fill="#FFD552" /><path d="M300 799.2H124v-50.8h158l1.6 2.8c8 12.4 13.2 26.4 15.6 40.8l0.8 7.2z m-164-12.4h149.6c-2.4-9.2-5.6-18.4-10.8-26.4H136v26.4z" fill="#4A555F" /><path d="M284 870.4H124v-50.8h176.4l-0.8 6.8c-2 14.4-6.4 28.4-14 40.8l-1.6 3.2z m-148-12.4h140.8c4.4-8.4 7.6-17.2 9.6-26.4H136v26.4z" fill="#4A555F" /><path d="M63.2 708.4c-12.4 0-22.4-10-22.4-22.4s10-22.4 22.4-22.4c12.4 0 22.4 10 22.4 22.4s-10 22.4-22.4 22.4z m0-32.8c-5.6 0-10.4 4.8-10.4 10.4s4.8 10.4 10.4 10.4 10.4-4.8 10.4-10.4-4.8-10.4-10.4-10.4z" fill="#4A555F" /><path d="M77.408 692.828l22.064 22.064-8.488 8.484-22.06-22.06z" fill="#4A555F" /><path d="M180.4 944h12v27.6h-12z" fill="#4A555F" /><path d="M180.4 650.4h12v27.6h-12z" fill="#4A555F" /><path d="M26 804.8h27.6v12H26z" fill="#4A555F" /><path d="M319.6 804.8h27.6v12h-27.6z" fill="#4A555F" /><path d="M88.46 900.572l8.488 8.488-19.52 19.516-8.48-8.488z" fill="#4A555F" /><path d="M295.84 693.42l8.48 8.48-19.512 19.52-8.488-8.484z" fill="#4A555F" /><path d="M284.656 900.656l19.516 19.516-8.488 8.48-19.516-19.512z" fill="#4A555F" /></svg>